<svg xmlns="http://www.w3.org/2000/svg" viewBox="0 0 87.88 91.49"><defs><style>.cls-1{fill:blue;}</style></defs><title>Asset 44</title><g id="Layer_2" data-name="Layer 2"><g id="Layer_2-2" data-name="Layer 2"><path class="cls-1" d="M83.09,31.89,35.58,79.77a16.88,16.88,0,0,1-23.85.09A16.86,16.86,0,0,1,11.64,56L57.57,9.73a10.12,10.12,0,0,1,17.3,7.09A10,10,0,0,1,71.93,24L26,70.27a3.37,3.37,0,1,1-4.78-4.75L68.73,17.64l-4.79-4.76L16.43,60.77A10.12,10.12,0,1,0,30.79,75L76.72,28.73A16.86,16.86,0,0,0,52.78,5L6.85,51.26A23.61,23.61,0,0,0,40.37,84.52L87.88,36.64Z"/></g></g></svg>