<svg xmlns="http://www.w3.org/2000/svg" viewBox="0 0 53 53"><defs><style>.cls-1{fill:red;}</style></defs><title>Asset 46</title><g id="Layer_2" data-name="Layer 2"><g id="Layer_2-2" data-name="Layer 2"><path class="cls-1" d="M26.5,4A22.5,22.5,0,1,1,4,26.5,22.52,22.52,0,0,1,26.5,4m0-4A26.5,26.5,0,1,0,53,26.5,26.49,26.49,0,0,0,26.5,0Z"/><path class="cls-1" d="M30.72,13.85v1.38h5l-3.61,3.61-3.61,3.61,1,1,1,1,3.61-3.61,3.61-3.61v5h2.76V12.47H30.72Z"/><path class="cls-1" d="M18.84,32.15l-3.61,3.61v-5H12.47v9.81h9.81V37.77h-5l3.58-3.58c2-2,3.57-3.61,3.57-3.64a9.49,9.49,0,0,0-1-1l-1-1Z"/></g></g></svg>